HIERARCHY
ROOT mixamorig:Hips
{
	OFFSET -0.000000 0.997919 0.000000
	CHANNELS 6 Xposition Yposition Zposition Xrotation Yrotation Zrotation
	JOINT mixamorig:Spine
	{
		OFFSET -0.000000 0.099235 -0.012273
		CHANNELS 3 Xrotation Yrotation Zrotation
		JOINT mixamorig:Spine1
		{
			OFFSET -0.000012 0.116454 -0.014223
			CHANNELS 3 Xrotation Yrotation Zrotation
			JOINT mixamorig:Spine2
			{
				OFFSET -0.000011 0.133602 -0.016265
				CHANNELS 3 Xrotation Yrotation Zrotation
				JOINT mixamorig:Neck
				{
					OFFSET -0.000013 0.150325 0.007929
					CHANNELS 3 Xrotation Yrotation Zrotation
					JOINT mixamorig:Head
					{
						OFFSET -0.000009 0.103218 0.031424
						CHANNELS 3 Xrotation Yrotation Zrotation
						JOINT mixamorig:HeadTop_End
						{
							OFFSET -0.000015 0.184747 0.066364
							CHANNELS 3 Xrotation Yrotation Zrotation
							End Site
							{
								OFFSET -0.000017 0.196305 0.000000
							}
						}
					}
				}
				JOINT mixamorig:LeftShoulder
				{
					OFFSET 0.061050 0.091109 0.007055
					CHANNELS 3 Xrotation Yrotation Zrotation
					JOINT mixamorig:LeftArm
					{
						OFFSET 0.126551 -0.002648 -0.026009
						CHANNELS 3 Xrotation Yrotation Zrotation
						JOINT mixamorig:LeftForeArm
						{
							OFFSET 0.274047 0.000025 -0.000000
							CHANNELS 3 Xrotation Yrotation Zrotation
							JOINT mixamorig:LeftHand
							{
								OFFSET 0.276145 0.000025 0.000000
								CHANNELS 3 Xrotation Yrotation Zrotation
								JOINT mixamorig:LeftHandThumb1
								{
									OFFSET 0.037890 -0.021668 0.030030
									CHANNELS 3 Xrotation Yrotation Zrotation
									JOINT mixamorig:LeftHandThumb2
									{
										OFFSET 0.036756 -0.021217 0.021220
										CHANNELS 3 Xrotation Yrotation Zrotation
										JOINT mixamorig:LeftHandThumb3
										{
											OFFSET 0.033945 -0.019595 0.019597
											CHANNELS 3 Xrotation Yrotation Zrotation
											JOINT mixamorig:LeftHandThumb4
											{
												OFFSET 0.026795 -0.015468 0.015470
												CHANNELS 3 Xrotation Yrotation Zrotation
												End Site
												{
													OFFSET 0.024006 -0.015304 0.019648
												}
											}
										}
									}
								}
								JOINT mixamorig:LeftHandIndex1
								{
									OFFSET 0.122666 -0.002307 0.028220
									CHANNELS 3 Xrotation Yrotation Zrotation
									JOINT mixamorig:LeftHandIndex2
									{
										OFFSET 0.038920 0.000003 0.000000
										CHANNELS 3 Xrotation Yrotation Zrotation
										JOINT mixamorig:LeftHandIndex3
										{
											OFFSET 0.034152 0.000003 -0.000000
											CHANNELS 3 Xrotation Yrotation Zrotation
											JOINT mixamorig:LeftHandIndex4
											{
												OFFSET 0.030780 0.000003 -0.000000
												CHANNELS 3 Xrotation Yrotation Zrotation
												End Site
												{
													OFFSET 0.030780 0.000003 0.000001
												}
											}
										}
									}
								}
								JOINT mixamorig:LeftHandMiddle1
								{
									OFFSET 0.127755 0.000011 0.000000
									CHANNELS 3 Xrotation Yrotation Zrotation
									JOINT mixamorig:LeftHandMiddle2
									{
										OFFSET 0.036140 0.000003 0.000000
										CHANNELS 3 Xrotation Yrotation Zrotation
										JOINT mixamorig:LeftHandMiddle3
										{
											OFFSET 0.034598 0.000003 -0.000000
											CHANNELS 3 Xrotation Yrotation Zrotation
											JOINT mixamorig:LeftHandMiddle4
											{
												OFFSET 0.036802 0.000003 0.000000
												CHANNELS 3 Xrotation Yrotation Zrotation
												End Site
												{
													OFFSET 0.036802 0.000004 -0.000048
												}
											}
										}
									}
								}
								JOINT mixamorig:LeftHandRing1
								{
									OFFSET 0.121470 0.000111 -0.022166
									CHANNELS 3 Xrotation Yrotation Zrotation
									JOINT mixamorig:LeftHandRing2
									{
										OFFSET 0.036012 0.000003 0.000000
										CHANNELS 3 Xrotation Yrotation Zrotation
										JOINT mixamorig:LeftHandRing3
										{
											OFFSET 0.033073 0.000003 -0.000000
											CHANNELS 3 Xrotation Yrotation Zrotation
											JOINT mixamorig:LeftHandRing4
											{
												OFFSET 0.036601 0.000003 0.000000
												CHANNELS 3 Xrotation Yrotation Zrotation
												End Site
												{
													OFFSET 0.036601 0.000002 0.000056
												}
											}
										}
									}
								}
								JOINT mixamorig:LeftHandPinky1
								{
									OFFSET 0.109082 -0.002252 -0.047258
									CHANNELS 3 Xrotation Yrotation Zrotation
									JOINT mixamorig:LeftHandPinky2
									{
										OFFSET 0.041367 0.000004 0.000012
										CHANNELS 3 Xrotation Yrotation Zrotation
										JOINT mixamorig:LeftHandPinky3
										{
											OFFSET 0.025948 0.000002 -0.000012
											CHANNELS 3 Xrotation Yrotation Zrotation
											JOINT mixamorig:LeftHandPinky4
											{
												OFFSET 0.029239 0.000002 0.000000
												CHANNELS 3 Xrotation Yrotation Zrotation
												End Site
												{
													OFFSET 0.029239 0.000003 -0.000033
												}
											}
										}
									}
								}
							}
						}
					}
				}
				JOINT mixamorig:RightShoulder
				{
					OFFSET -0.061065 0.091100 0.007056
					CHANNELS 3 Xrotation Yrotation Zrotation
					JOINT mixamorig:RightArm
					{
						OFFSET -0.126550 -0.002671 -0.026009
						CHANNELS 3 Xrotation Yrotation Zrotation
						JOINT mixamorig:RightForeArm
						{
							OFFSET -0.274047 -0.000024 0.000000
							CHANNELS 3 Xrotation Yrotation Zrotation
							JOINT mixamorig:RightHand
							{
								OFFSET -0.276145 -0.000024 0.000000
								CHANNELS 3 Xrotation Yrotation Zrotation
								JOINT mixamorig:RightHandThumb1
								{
									OFFSET -0.037886 -0.021675 0.030030
									CHANNELS 3 Xrotation Yrotation Zrotation
									JOINT mixamorig:RightHandThumb2
									{
										OFFSET -0.036752 -0.021223 0.021220
										CHANNELS 3 Xrotation Yrotation Zrotation
										JOINT mixamorig:RightHandThumb3
										{
											OFFSET -0.033942 -0.019601 0.019598
											CHANNELS 3 Xrotation Yrotation Zrotation
											JOINT mixamorig:RightHandThumb4
											{
												OFFSET -0.026792 -0.015472 0.015470
												CHANNELS 3 Xrotation Yrotation Zrotation
												End Site
												{
													OFFSET -0.023988 -0.015317 0.019659
												}
											}
										}
									}
								}
								JOINT mixamorig:RightHandIndex1
								{
									OFFSET -0.122666 -0.002329 0.028221
									CHANNELS 3 Xrotation Yrotation Zrotation
									JOINT mixamorig:RightHandIndex2
									{
										OFFSET -0.038920 -0.000003 0.000000
										CHANNELS 3 Xrotation Yrotation Zrotation
										JOINT mixamorig:RightHandIndex3
										{
											OFFSET -0.034152 -0.000003 -0.000000
											CHANNELS 3 Xrotation Yrotation Zrotation
											JOINT mixamorig:RightHandIndex4
											{
												OFFSET -0.030780 -0.000003 0.000000
												CHANNELS 3 Xrotation Yrotation Zrotation
												End Site
												{
													OFFSET -0.030780 0.000002 -0.000085
												}
											}
										}
									}
								}
								JOINT mixamorig:RightHandMiddle1
								{
									OFFSET -0.127755 -0.000011 0.000000
									CHANNELS 3 Xrotation Yrotation Zrotation
									JOINT mixamorig:RightHandMiddle2
									{
										OFFSET -0.036140 -0.000003 0.000000
										CHANNELS 3 Xrotation Yrotation Zrotation
										JOINT mixamorig:RightHandMiddle3
										{
											OFFSET -0.034598 -0.000003 -0.000000
											CHANNELS 3 Xrotation Yrotation Zrotation
											JOINT mixamorig:RightHandMiddle4
											{
												OFFSET -0.036802 -0.000003 0.000000
												CHANNELS 3 Xrotation Yrotation Zrotation
												End Site
												{
													OFFSET -0.036802 -0.000000 0.000126
												}
											}
										}
									}
								}
								JOINT mixamorig:RightHandRing1
								{
									OFFSET -0.121470 0.000089 -0.022166
									CHANNELS 3 Xrotation Yrotation Zrotation
									JOINT mixamorig:RightHandRing2
									{
										OFFSET -0.036012 -0.000003 0.000000
										CHANNELS 3 Xrotation Yrotation Zrotation
										JOINT mixamorig:RightHandRing3
										{
											OFFSET -0.033073 -0.000003 -0.000000
											CHANNELS 3 Xrotation Yrotation Zrotation
											JOINT mixamorig:RightHandRing4
											{
												OFFSET -0.036601 -0.000003 0.000000
												CHANNELS 3 Xrotation Yrotation Zrotation
												End Site
												{
													OFFSET -0.036601 0.000001 0.000022
												}
											}
										}
									}
								}
								JOINT mixamorig:RightHandPinky1
								{
									OFFSET -0.109082 -0.002271 -0.047258
									CHANNELS 3 Xrotation Yrotation Zrotation
									JOINT mixamorig:RightHandPinky2
									{
										OFFSET -0.041366 -0.000004 0.000000
										CHANNELS 3 Xrotation Yrotation Zrotation
										JOINT mixamorig:RightHandPinky3
										{
											OFFSET -0.025948 -0.000002 -0.000000
											CHANNELS 3 Xrotation Yrotation Zrotation
											JOINT mixamorig:RightHandPinky4
											{
												OFFSET -0.029239 -0.000003 0.000000
												CHANNELS 3 Xrotation Yrotation Zrotation
												End Site
												{
													OFFSET -0.029238 0.000003 -0.000129
												}
											}
										}
									}
								}
							}
						}
					}
				}
			}
		}
	}
	JOINT mixamorig:LeftUpLeg
	{
		OFFSET 0.091245 -0.066564 -0.000554
		CHANNELS 3 Xrotation Yrotation Zrotation
		JOINT mixamorig:LeftLeg
		{
			OFFSET 0.002447 -0.405954 -0.005156
			CHANNELS 3 Xrotation Yrotation Zrotation
			JOINT mixamorig:LeftFoot
			{
				OFFSET -0.002447 -0.420479 -0.020592
				CHANNELS 3 Xrotation Yrotation Zrotation
				JOINT mixamorig:LeftToeBase
				{
					OFFSET 0.003735 -0.072085 0.139666
					CHANNELS 3 Xrotation Yrotation Zrotation
					JOINT mixamorig:LeftToe_End
					{
						OFFSET -0.001421 -0.001752 0.099975
						CHANNELS 3 Xrotation Yrotation Zrotation
						End Site
						{
							OFFSET -0.001421 -0.001752 0.099975
						}
					}
				}
			}
		}
	}
	JOINT mixamorig:RightUpLeg
	{
		OFFSET -0.091244 -0.066564 -0.000554
		CHANNELS 3 Xrotation Yrotation Zrotation
		JOINT mixamorig:RightLeg
		{
			OFFSET -0.002447 -0.405955 -0.005143
			CHANNELS 3 Xrotation Yrotation Zrotation
			JOINT mixamorig:RightFoot
			{
				OFFSET 0.002447 -0.420479 -0.020605
				CHANNELS 3 Xrotation Yrotation Zrotation
				JOINT mixamorig:RightToeBase
				{
					OFFSET -0.003735 -0.072085 0.139666
					CHANNELS 3 Xrotation Yrotation Zrotation
					JOINT mixamorig:RightToe_End
					{
						OFFSET 0.001418 -0.001750 0.099975
						CHANNELS 3 Xrotation Yrotation Zrotation
						End Site
						{
							OFFSET 0.001418 -0.001750 0.099975
						}
					}
				}
			}
		}
	}
}
MOTION
Frames: 4
Frame Time: 0.033333
-0.006452 0.877043 0.005157 -6.370410 -3.832772 -2.537308 20.327539 5.383094 2.084788 7.066141 1.638594 0.061123 7.069868 1.619828 0.066314 2.922607 -2.262143 3.465368 -26.270764 -9.443827 0.365023 0.000000 0.000001 0.000000 0.323730 0.247645 -5.506401 1.702687 -12.348874 -48.457508 -0.005455 -133.129498 -0.012607 32.844587 19.657923 -15.614325 33.554906 13.232631 -1.094348 46.273388 53.326828 -39.138227 10.394285 27.951675 -8.452124 0.000002 -0.000002 0.000004 7.843324 6.814591 -98.057290 7.961896 6.796317 -99.064148 2.399129 5.227471 -49.295302 -0.000003 -0.000001 -0.000000 7.840846 6.814888 -98.041000 7.964014 6.796504 -99.080438 2.399278 5.227400 -49.295326 0.000003 -0.000002 -0.000001 7.843292 6.814527 -98.057276 7.961683 6.796363 -99.064422 2.398964 5.227564 -49.295292 -0.000000 -0.000000 0.000000 11.899673 6.246073 -98.008188 7.931904 2.698905 -99.005136 2.399634 5.253583 -49.296026 0.000000 -0.000003 -0.000000 0.055546 -2.866060 2.232854 -19.105296 60.930082 55.717384 0.013914 109.649603 -0.019735 40.213418 -15.396483 -9.231784 43.155420 3.526730 3.089245 62.921403 -20.724713 19.958620 26.812739 -12.732563 7.143377 0.000001 0.000001 0.000003 8.519667 -6.768437 103.092833 8.519224 -6.767996 103.092819 2.610367 -5.432306 51.294096 0.000001 -0.000003 -0.000008 8.519186 -6.768532 103.092772 8.519194 -6.768516 103.092908 2.610339 -5.432324 51.294089 -0.000001 0.000001 0.000002 8.519695 -6.768508 103.092833 8.518779 -6.768128 103.092772 2.610005 -5.432472 51.294079 0.000001 0.000000 0.000001 8.519496 -6.768549 103.092813 8.518312 -6.768387 103.092758 2.610609 -5.433400 51.294157 0.000000 -0.000001 -0.000000 -22.736257 7.078166 25.055318 46.253706 -6.550259 8.052382 -19.406762 -1.111557 -22.110442 -3.502118 -0.000012 -0.000000 -0.000000 -0.000000 0.000000 -25.887570 -0.763474 -3.054511 57.854195 5.875044 -7.670313 -25.836254 -1.500179 8.624818 -0.000022 0.000000 -0.000001 -0.000000 0.000000 0.000000 
0.003916 0.877338 0.004759 -5.644433 -4.967040 -3.042590 18.125486 4.895654 2.276228 6.997185 1.545661 -0.588010 7.010308 1.487982 -0.571357 2.576125 -2.252779 3.812364 -24.501308 -9.461987 1.509651 0.000000 0.000001 -0.000000 0.353627 -1.000923 -3.353278 -7.153169 -10.848827 -48.007610 -0.006199 -129.322583 -0.013137 35.193339 18.460789 -18.465384 33.554906 13.232631 -1.094343 46.273388 53.326835 -39.138227 10.394281 27.951673 -8.452117 0.000006 0.000004 0.000004 7.843326 6.814589 -98.057290 7.961898 6.796319 -99.064142 2.399127 5.227472 -49.295302 0.000001 -0.000001 -0.000001 7.840847 6.814889 -98.041000 7.964015 6.796503 -99.080432 2.399279 5.227397 -49.295323 0.000002 -0.000002 -0.000000 7.843290 6.814526 -98.057276 7.961683 6.796360 -99.064429 2.398966 5.227566 -49.295295 -0.000002 -0.000001 -0.000001 11.899667 6.246073 -98.008188 7.931896 2.698903 -99.005136 2.399635 5.253580 -49.296019 0.000002 0.000001 0.000000 0.058584 -1.957508 0.933496 -32.716937 60.349974 65.755706 0.021572 102.971058 -0.027090 39.924535 -13.487213 -12.047326 43.155423 3.526726 3.089241 62.921410 -20.724712 19.958608 26.812739 -12.732563 7.143375 -0.000002 0.000003 -0.000001 8.519666 -6.768433 103.092833 8.519227 -6.767993 103.092819 2.610368 -5.432308 51.294096 -0.000003 -0.000000 0.000002 8.519191 -6.768532 103.092772 8.519190 -6.768514 103.092908 2.610338 -5.432328 51.294092 0.000001 -0.000001 -0.000004 8.519694 -6.768507 103.092833 8.518784 -6.768133 103.092778 2.610004 -5.432472 51.294079 0.000002 -0.000000 0.000001 8.519493 -6.768546 103.092813 8.518323 -6.768388 103.092758 2.610611 -5.433398 51.294157 0.000000 0.000000 -0.000001 -23.545382 6.611737 24.836590 47.671579 -6.222427 7.733668 -19.973374 0.635619 -21.281968 -2.453918 -0.000009 0.000006 -0.000000 0.000000 0.000000 -26.876311 -1.097028 -3.797818 57.293218 7.010828 -7.156308 -25.146252 -1.044320 8.676710 -0.000064 0.000002 -0.000005 -0.000000 0.000000 -0.000000 
0.014903 0.880154 0.005453 -4.854817 -6.096296 -3.477060 15.753036 4.457828 2.340661 6.823487 1.460148 -1.111385 6.844043 1.372710 -1.084885 2.467758 -2.223738 4.113655 -22.350780 -9.419541 2.711923 0.000001 -0.000001 -0.000000 0.460789 -2.318687 -1.298726 -15.721960 -10.148328 -46.992350 -0.007434 -124.344741 -0.014127 37.437923 16.919922 -21.084826 33.554906 13.232632 -1.094342 46.273391 53.326835 -39.138237 10.394285 27.951675 -8.452116 0.000003 0.000002 0.000008 7.843324 6.814592 -98.057290 7.961897 6.796319 -99.064148 2.399127 5.227476 -49.295309 -0.000001 0.000001 -0.000000 7.840845 6.814890 -98.041000 7.964012 6.796499 -99.080438 2.399279 5.227399 -49.295323 -0.000001 0.000001 -0.000001 7.843290 6.814526 -98.057276 7.961683 6.796362 -99.064429 2.398965 5.227567 -49.295299 0.000001 -0.000002 -0.000001 11.899667 6.246072 -98.008188 7.931898 2.698902 -99.005136 2.399633 5.253583 -49.296026 -0.000001 -0.000000 -0.000000 0.094703 -0.900826 -0.380758 -45.648381 58.626464 74.981482 0.057443 94.939397 -0.062568 39.337641 -11.221787 -15.211004 43.155427 3.526724 3.089241 62.921403 -20.724708 19.958619 26.812741 -12.732563 7.143374 0.000002 -0.000000 -0.000003 8.519669 -6.768441 103.092833 8.519222 -6.767994 103.092819 2.610369 -5.432311 51.294096 0.000002 -0.000000 -0.000005 8.519189 -6.768533 103.092772 8.519196 -6.768518 103.092908 2.610338 -5.432329 51.294089 -0.000001 -0.000001 -0.000002 8.519695 -6.768509 103.092833 8.518789 -6.768130 103.092778 2.610004 -5.432470 51.294079 -0.000002 -0.000001 -0.000000 8.519496 -6.768557 103.092813 8.518313 -6.768387 103.092758 2.610611 -5.433393 51.294157 -0.000002 0.000003 0.000004 -23.992337 6.365719 24.499380 48.265341 -5.813125 7.287702 -20.262864 2.200277 -20.406262 -1.656977 -0.000010 0.000002 0.000000 -0.000000 0.000000 -27.493673 -1.567439 -4.681113 55.916751 8.069378 -6.611530 -24.131757 -0.329803 8.853110 -0.000015 0.000000 -0.000000 -0.000000 -0.000000 -0.000000 
0.026265 0.885585 0.007300 -4.103162 -7.220558 -3.943210 13.440809 4.106920 2.234670 6.534224 1.386228 -1.454921 6.559490 1.282734 -1.421861 2.635895 -2.184114 4.342073 -19.924166 -9.441586 4.019068 0.000001 0.000000 -0.000000 0.625983 -3.661377 0.535502 -23.732566 -10.480843 -45.691469 -0.009607 -117.948078 -0.015985 39.286405 14.996334 -23.230582 33.554903 13.232631 -1.094344 46.273381 53.326828 -39.138220 10.394284 27.951675 -8.452121 0.000004 0.000003 0.000006 7.843325 6.814587 -98.057290 7.961896 6.796318 -99.064142 2.399127 5.227470 -49.295306 -0.000001 -0.000001 0.000004 7.840843 6.814890 -98.041000 7.964013 6.796501 -99.080432 2.399280 5.227398 -49.295326 0.000001 -0.000001 0.000001 7.843291 6.814526 -98.057276 7.961682 6.796362 -99.064422 2.398967 5.227569 -49.295299 0.000003 -0.000000 0.000002 11.899668 6.246070 -98.008188 7.931901 2.698903 -99.005129 2.399635 5.253583 -49.296026 -0.000002 0.000001 0.000001 0.174213 0.332027 -1.676808 -56.984224 55.916402 82.684624 -0.063261 85.508668 0.058459 38.609871 -8.586001 -18.695474 43.155427 3.526732 3.089241 62.921397 -20.724712 19.958620 26.812737 -12.732562 7.143373 -0.000001 0.000003 0.000000 8.519669 -6.768433 103.092833 8.519224 -6.767996 103.092826 2.610369 -5.432306 51.294096 -0.000001 -0.000001 -0.000001 8.519190 -6.768532 103.092772 8.519199 -6.768516 103.092908 2.610338 -5.432325 51.294089 0.000004 0.000000 -0.000002 8.519693 -6.768505 103.092833 8.518778 -6.768131 103.092778 2.610004 -5.432473 51.294079 0.000002 -0.000001 -0.000000 8.519493 -6.768549 103.092813 8.518311 -6.768388 103.092758 2.610610 -5.433400 51.294157 -0.000002 -0.000000 -0.000001 -24.011831 6.395746 24.161145 48.005503 -5.282025 6.821041 -20.275234 3.448782 -19.561151 -1.159864 -0.000003 0.000001 0.000000 0.000000 -0.000000 -27.549536 -2.171561 -5.513727 53.599298 8.903387 -6.065600 -22.765920 0.689447 9.215780 -0.093792 0.000000 -0.000003 0.000000 -0.000000 0.000000 
